<mxfile host="app.diagrams.net" modified="2024-02-01T01:55:45.907Z" agent="Mozilla/5.0 (X11; Linux x86_64) AppleWebKit/537.36 (KHTML, like Gecko) Chrome/121.0.0.0 Safari/537.36" etag="WieWCGwuQQK9Fga6joJB" version="23.1.0" type="device" pages="2">
  <diagram name="Page-1" id="cEBlJ4Hop4kexIVkSqlb">
    <mxGraphModel dx="2329" dy="637" grid="1" gridSize="10" guides="1" tooltips="1" connect="1" arrows="1" fold="1" page="1" pageScale="1" pageWidth="827" pageHeight="1169" math="0" shadow="0">
      <root>
        <mxCell id="0" />
        <mxCell id="1" parent="0" />
        <mxCell id="H5Ej5llLTe1Llc4CH-_9-1" value="Safety switch off" style="text;html=1;strokeColor=none;fillColor=none;align=center;verticalAlign=middle;whiteSpace=wrap;rounded=0;" vertex="1" parent="1">
          <mxGeometry x="190" y="130" width="60" height="30" as="geometry" />
        </mxCell>
        <mxCell id="H5Ej5llLTe1Llc4CH-_9-2" style="edgeStyle=orthogonalEdgeStyle;rounded=0;orthogonalLoop=1;jettySize=auto;html=1;exitX=0.5;exitY=1;exitDx=0;exitDy=0;" edge="1" parent="1" source="H5Ej5llLTe1Llc4CH-_9-1" target="H5Ej5llLTe1Llc4CH-_9-1">
          <mxGeometry relative="1" as="geometry" />
        </mxCell>
        <mxCell id="H5Ej5llLTe1Llc4CH-_9-3" value="" style="endArrow=classic;html=1;rounded=0;" edge="1" parent="1">
          <mxGeometry width="50" height="50" relative="1" as="geometry">
            <mxPoint x="179.5" y="170" as="sourcePoint" />
            <mxPoint x="49.5" y="170" as="targetPoint" />
          </mxGeometry>
        </mxCell>
        <mxCell id="H5Ej5llLTe1Llc4CH-_9-4" value="CONNECTING TO GCS" style="text;html=1;strokeColor=none;fillColor=none;align=center;verticalAlign=middle;whiteSpace=wrap;rounded=0;" vertex="1" parent="1">
          <mxGeometry x="70" y="130" width="60" height="30" as="geometry" />
        </mxCell>
        <mxCell id="H5Ej5llLTe1Llc4CH-_9-5" value="OK" style="html=1;verticalAlign=bottom;endArrow=block;curved=0;rounded=0;dashed=1;dashPattern=8 8;" edge="1" parent="1" target="H5Ej5llLTe1Llc4CH-_9-11">
          <mxGeometry width="80" relative="1" as="geometry">
            <mxPoint x="50" y="189.5" as="sourcePoint" />
            <mxPoint x="220" y="189.5" as="targetPoint" />
          </mxGeometry>
        </mxCell>
        <mxCell id="H5Ej5llLTe1Llc4CH-_9-6" value=":ACC." style="shape=umlLifeline;perimeter=lifelinePerimeter;whiteSpace=wrap;html=1;container=1;dropTarget=0;collapsible=0;recursiveResize=0;outlineConnect=0;portConstraint=eastwest;newEdgeStyle={&quot;curved&quot;:0,&quot;rounded&quot;:0};" vertex="1" parent="1">
          <mxGeometry x="590" y="80" width="100" height="1560" as="geometry" />
        </mxCell>
        <mxCell id="H5Ej5llLTe1Llc4CH-_9-7" value=":E-MATCH" style="shape=umlLifeline;perimeter=lifelinePerimeter;whiteSpace=wrap;html=1;container=1;dropTarget=0;collapsible=0;recursiveResize=0;outlineConnect=0;portConstraint=eastwest;newEdgeStyle={&quot;curved&quot;:0,&quot;rounded&quot;:0};" vertex="1" parent="1">
          <mxGeometry x="710" y="80" width="100" height="1560" as="geometry" />
        </mxCell>
        <mxCell id="H5Ej5llLTe1Llc4CH-_9-42" value="" style="html=1;points=[[0,0,0,0,5],[0,1,0,0,-5],[1,0,0,0,5],[1,1,0,0,-5]];perimeter=orthogonalPerimeter;outlineConnect=0;targetShapes=umlLifeline;portConstraint=eastwest;newEdgeStyle={&quot;curved&quot;:0,&quot;rounded&quot;:0};" vertex="1" parent="H5Ej5llLTe1Llc4CH-_9-7">
          <mxGeometry x="45" y="1100" width="10" height="40" as="geometry" />
        </mxCell>
        <mxCell id="H5Ej5llLTe1Llc4CH-_9-8" value=":GPS" style="shape=umlLifeline;perimeter=lifelinePerimeter;whiteSpace=wrap;html=1;container=1;dropTarget=0;collapsible=0;recursiveResize=0;outlineConnect=0;portConstraint=eastwest;newEdgeStyle={&quot;curved&quot;:0,&quot;rounded&quot;:0};" vertex="1" parent="1">
          <mxGeometry x="360" y="80" width="100" height="1560" as="geometry" />
        </mxCell>
        <mxCell id="H5Ej5llLTe1Llc4CH-_9-9" value=":XBEE TF" style="shape=umlLifeline;perimeter=lifelinePerimeter;whiteSpace=wrap;html=1;container=1;dropTarget=0;collapsible=0;recursiveResize=0;outlineConnect=0;portConstraint=eastwest;newEdgeStyle={&quot;curved&quot;:0,&quot;rounded&quot;:0};" vertex="1" parent="1">
          <mxGeometry x="250" y="80" width="100" height="1560" as="geometry" />
        </mxCell>
        <mxCell id="H5Ej5llLTe1Llc4CH-_9-10" value="" style="html=1;points=[[0,0,0,0,5],[0,1,0,0,-5],[1,0,0,0,5],[1,1,0,0,-5]];perimeter=orthogonalPerimeter;outlineConnect=0;targetShapes=umlLifeline;portConstraint=eastwest;newEdgeStyle={&quot;curved&quot;:0,&quot;rounded&quot;:0};" vertex="1" parent="H5Ej5llLTe1Llc4CH-_9-9">
          <mxGeometry x="45" y="490" width="10" height="610" as="geometry" />
        </mxCell>
        <mxCell id="H5Ej5llLTe1Llc4CH-_9-11" value=":OBC" style="shape=umlLifeline;perimeter=lifelinePerimeter;whiteSpace=wrap;html=1;container=1;dropTarget=0;collapsible=0;recursiveResize=0;outlineConnect=0;portConstraint=eastwest;newEdgeStyle={&quot;curved&quot;:0,&quot;rounded&quot;:0};" vertex="1" parent="1">
          <mxGeometry x="130" y="80" width="100" height="1560" as="geometry" />
        </mxCell>
        <mxCell id="H5Ej5llLTe1Llc4CH-_9-12" value="" style="html=1;points=[[0,0,0,0,5],[0,1,0,0,-5],[1,0,0,0,5],[1,1,0,0,-5]];perimeter=orthogonalPerimeter;outlineConnect=0;targetShapes=umlLifeline;portConstraint=eastwest;newEdgeStyle={&quot;curved&quot;:0,&quot;rounded&quot;:0};" vertex="1" parent="H5Ej5llLTe1Llc4CH-_9-11">
          <mxGeometry x="45" y="80" width="10" height="1080" as="geometry" />
        </mxCell>
        <mxCell id="H5Ej5llLTe1Llc4CH-_9-57" value="" style="html=1;points=[[0,0,0,0,5],[0,1,0,0,-5],[1,0,0,0,5],[1,1,0,0,-5]];perimeter=orthogonalPerimeter;outlineConnect=0;targetShapes=umlLifeline;portConstraint=eastwest;newEdgeStyle={&quot;curved&quot;:0,&quot;rounded&quot;:0};" vertex="1" parent="H5Ej5llLTe1Llc4CH-_9-11">
          <mxGeometry x="45" y="1300" width="10" height="180" as="geometry" />
        </mxCell>
        <mxCell id="H5Ej5llLTe1Llc4CH-_9-13" value=":GCS" style="shape=umlLifeline;perimeter=lifelinePerimeter;whiteSpace=wrap;html=1;container=1;dropTarget=0;collapsible=0;recursiveResize=0;outlineConnect=0;portConstraint=eastwest;newEdgeStyle={&quot;curved&quot;:0,&quot;rounded&quot;:0};" vertex="1" parent="1">
          <mxGeometry y="80" width="100" height="1560" as="geometry" />
        </mxCell>
        <mxCell id="H5Ej5llLTe1Llc4CH-_9-14" value="" style="html=1;points=[[0,0,0,0,5],[0,1,0,0,-5],[1,0,0,0,5],[1,1,0,0,-5]];perimeter=orthogonalPerimeter;outlineConnect=0;targetShapes=umlLifeline;portConstraint=eastwest;newEdgeStyle={&quot;curved&quot;:0,&quot;rounded&quot;:0};" vertex="1" parent="H5Ej5llLTe1Llc4CH-_9-13">
          <mxGeometry x="45" y="505" width="10" height="665" as="geometry" />
        </mxCell>
        <mxCell id="H5Ej5llLTe1Llc4CH-_9-15" value=":ALTIMETER" style="shape=umlLifeline;perimeter=lifelinePerimeter;whiteSpace=wrap;html=1;container=1;dropTarget=0;collapsible=0;recursiveResize=0;outlineConnect=0;portConstraint=eastwest;newEdgeStyle={&quot;curved&quot;:0,&quot;rounded&quot;:0};" vertex="1" parent="1">
          <mxGeometry x="480" y="80" width="100" height="1560" as="geometry" />
        </mxCell>
        <mxCell id="H5Ej5llLTe1Llc4CH-_9-16" value="" style="html=1;points=[[0,0,0,0,5],[0,1,0,0,-5],[1,0,0,0,5],[1,1,0,0,-5]];perimeter=orthogonalPerimeter;outlineConnect=0;targetShapes=umlLifeline;portConstraint=eastwest;newEdgeStyle={&quot;curved&quot;:0,&quot;rounded&quot;:0};" vertex="1" parent="H5Ej5llLTe1Llc4CH-_9-15">
          <mxGeometry x="45" y="490" width="10" height="240" as="geometry" />
        </mxCell>
        <mxCell id="H5Ej5llLTe1Llc4CH-_9-17" value=":TEMP. SENSOR" style="shape=umlLifeline;perimeter=lifelinePerimeter;whiteSpace=wrap;html=1;container=1;dropTarget=0;collapsible=0;recursiveResize=0;outlineConnect=0;portConstraint=eastwest;newEdgeStyle={&quot;curved&quot;:0,&quot;rounded&quot;:0};" vertex="1" parent="1">
          <mxGeometry x="830" y="80" width="100" height="1560" as="geometry" />
        </mxCell>
        <mxCell id="H5Ej5llLTe1Llc4CH-_9-18" value="Read" style="html=1;verticalAlign=bottom;endArrow=block;curved=0;rounded=0;" edge="1" parent="1">
          <mxGeometry x="0.2013" width="80" relative="1" as="geometry">
            <mxPoint x="182.75" y="319.5" as="sourcePoint" />
            <mxPoint x="637.25" y="319.5" as="targetPoint" />
            <mxPoint as="offset" />
          </mxGeometry>
        </mxCell>
        <mxCell id="H5Ej5llLTe1Llc4CH-_9-19" value="" style="html=1;verticalAlign=bottom;endArrow=block;curved=0;rounded=0;" edge="1" parent="1" target="H5Ej5llLTe1Llc4CH-_9-20">
          <mxGeometry x="0.2013" width="80" relative="1" as="geometry">
            <mxPoint x="190" y="230" as="sourcePoint" />
            <mxPoint x="640" y="230" as="targetPoint" />
            <mxPoint as="offset" />
          </mxGeometry>
        </mxCell>
        <mxCell id="H5Ej5llLTe1Llc4CH-_9-20" value="LOOP : wait for launch" style="shape=umlFrame;whiteSpace=wrap;html=1;pointerEvents=0;width=130;height=30;" vertex="1" parent="1">
          <mxGeometry x="150" y="230" width="520" height="280" as="geometry" />
        </mxCell>
        <mxCell id="H5Ej5llLTe1Llc4CH-_9-21" value="return acc struct" style="html=1;verticalAlign=bottom;endArrow=open;endSize=8;curved=0;rounded=0;" edge="1" parent="1">
          <mxGeometry x="-0.2088" relative="1" as="geometry">
            <mxPoint x="640" y="349.5" as="sourcePoint" />
            <mxPoint x="185" y="349.5" as="targetPoint" />
            <mxPoint as="offset" />
          </mxGeometry>
        </mxCell>
        <mxCell id="H5Ej5llLTe1Llc4CH-_9-22" value="ALT : acc &amp;lt; threshold" style="shape=umlFrame;whiteSpace=wrap;html=1;pointerEvents=0;width=150;height=15;" vertex="1" parent="1">
          <mxGeometry x="160" y="275" width="500" height="115" as="geometry" />
        </mxCell>
        <mxCell id="H5Ej5llLTe1Llc4CH-_9-23" value="ALT : acc &amp;gt;= threshold" style="shape=umlFrame;whiteSpace=wrap;html=1;pointerEvents=0;width=170;height=30;" vertex="1" parent="1">
          <mxGeometry x="160" y="390" width="500" height="110" as="geometry" />
        </mxCell>
        <mxCell id="H5Ej5llLTe1Llc4CH-_9-24" value="Read" style="html=1;verticalAlign=bottom;endArrow=block;curved=0;rounded=0;" edge="1" parent="1">
          <mxGeometry x="0.2013" width="80" relative="1" as="geometry">
            <mxPoint x="182.75" y="450" as="sourcePoint" />
            <mxPoint x="637.25" y="450" as="targetPoint" />
            <mxPoint as="offset" />
          </mxGeometry>
        </mxCell>
        <mxCell id="H5Ej5llLTe1Llc4CH-_9-25" value="return acc struct" style="html=1;verticalAlign=bottom;endArrow=open;endSize=8;curved=0;rounded=0;" edge="1" parent="1">
          <mxGeometry x="-0.2088" relative="1" as="geometry">
            <mxPoint x="637.5" y="480" as="sourcePoint" />
            <mxPoint x="182.5" y="480" as="targetPoint" />
            <mxPoint as="offset" />
          </mxGeometry>
        </mxCell>
        <mxCell id="H5Ej5llLTe1Llc4CH-_9-26" value="" style="html=1;points=[[0,0,0,0,5],[0,1,0,0,-5],[1,0,0,0,5],[1,1,0,0,-5]];perimeter=orthogonalPerimeter;outlineConnect=0;targetShapes=umlLifeline;portConstraint=eastwest;newEdgeStyle={&quot;curved&quot;:0,&quot;rounded&quot;:0};" vertex="1" parent="1">
          <mxGeometry x="635" y="300" width="10" height="420" as="geometry" />
        </mxCell>
        <mxCell id="H5Ej5llLTe1Llc4CH-_9-27" value="LOOP : during flight" style="shape=umlFrame;whiteSpace=wrap;html=1;pointerEvents=0;width=140;height=30;" vertex="1" parent="1">
          <mxGeometry x="10" y="540" width="930" height="760" as="geometry" />
        </mxCell>
        <mxCell id="H5Ej5llLTe1Llc4CH-_9-28" value="" style="html=1;points=[[0,0,0,0,5],[0,1,0,0,-5],[1,0,0,0,5],[1,1,0,0,-5]];perimeter=orthogonalPerimeter;outlineConnect=0;targetShapes=umlLifeline;portConstraint=eastwest;newEdgeStyle={&quot;curved&quot;:0,&quot;rounded&quot;:0};" vertex="1" parent="1">
          <mxGeometry x="405" y="570" width="10" height="300" as="geometry" />
        </mxCell>
        <mxCell id="H5Ej5llLTe1Llc4CH-_9-29" value="Read Acc" style="html=1;verticalAlign=bottom;endArrow=block;curved=0;rounded=0;" edge="1" parent="1">
          <mxGeometry x="0.1685" width="80" relative="1" as="geometry">
            <mxPoint x="190" y="670" as="sourcePoint" />
            <mxPoint x="635" y="670" as="targetPoint" />
            <mxPoint as="offset" />
          </mxGeometry>
        </mxCell>
        <mxCell id="H5Ej5llLTe1Llc4CH-_9-30" value="return acc struct" style="html=1;verticalAlign=bottom;endArrow=open;dashed=1;endSize=8;curved=0;rounded=0;" edge="1" parent="1">
          <mxGeometry x="-0.191" relative="1" as="geometry">
            <mxPoint x="632.5" y="700" as="sourcePoint" />
            <mxPoint x="187.5" y="700" as="targetPoint" />
            <mxPoint as="offset" />
          </mxGeometry>
        </mxCell>
        <mxCell id="H5Ej5llLTe1Llc4CH-_9-31" value="Read Alt" style="html=1;verticalAlign=bottom;endArrow=block;curved=0;rounded=0;" edge="1" parent="1">
          <mxGeometry x="0.0222" width="80" relative="1" as="geometry">
            <mxPoint x="190" y="740" as="sourcePoint" />
            <mxPoint x="527.5" y="740" as="targetPoint" />
            <mxPoint x="1" as="offset" />
          </mxGeometry>
        </mxCell>
        <mxCell id="H5Ej5llLTe1Llc4CH-_9-32" value="return alt struct" style="html=1;verticalAlign=bottom;endArrow=open;dashed=1;endSize=8;curved=0;rounded=0;" edge="1" parent="1">
          <mxGeometry x="-0.191" relative="1" as="geometry">
            <mxPoint x="527.5" y="780" as="sourcePoint" />
            <mxPoint x="190" y="780" as="targetPoint" />
            <mxPoint as="offset" />
          </mxGeometry>
        </mxCell>
        <mxCell id="H5Ej5llLTe1Llc4CH-_9-33" value="Read GPS" style="html=1;verticalAlign=bottom;endArrow=block;curved=0;rounded=0;" edge="1" parent="1">
          <mxGeometry x="0.0222" width="80" relative="1" as="geometry">
            <mxPoint x="192.5" y="820" as="sourcePoint" />
            <mxPoint x="412.5" y="820" as="targetPoint" />
            <mxPoint x="1" as="offset" />
          </mxGeometry>
        </mxCell>
        <mxCell id="H5Ej5llLTe1Llc4CH-_9-34" value="return GPS struct" style="html=1;verticalAlign=bottom;endArrow=open;dashed=1;endSize=8;curved=0;rounded=0;" edge="1" parent="1">
          <mxGeometry x="-0.191" relative="1" as="geometry">
            <mxPoint x="407.5" y="849" as="sourcePoint" />
            <mxPoint x="192.5" y="849" as="targetPoint" />
            <mxPoint as="offset" />
          </mxGeometry>
        </mxCell>
        <mxCell id="H5Ej5llLTe1Llc4CH-_9-35" value="Send data" style="html=1;verticalAlign=bottom;endArrow=block;curved=0;rounded=0;" edge="1" parent="1">
          <mxGeometry x="0.0222" width="80" relative="1" as="geometry">
            <mxPoint x="192.5" y="920" as="sourcePoint" />
            <mxPoint x="297.5" y="920" as="targetPoint" />
            <mxPoint x="1" as="offset" />
          </mxGeometry>
        </mxCell>
        <mxCell id="H5Ej5llLTe1Llc4CH-_9-36" value="data valid" style="html=1;verticalAlign=bottom;endArrow=open;dashed=1;endSize=8;curved=0;rounded=0;" edge="1" parent="1">
          <mxGeometry x="-0.191" relative="1" as="geometry">
            <mxPoint x="295" y="950" as="sourcePoint" />
            <mxPoint x="192.5" y="950" as="targetPoint" />
            <mxPoint as="offset" />
          </mxGeometry>
        </mxCell>
        <mxCell id="H5Ej5llLTe1Llc4CH-_9-37" value="Send data" style="html=1;verticalAlign=bottom;endArrow=block;curved=0;rounded=0;" edge="1" parent="1">
          <mxGeometry x="0.2917" width="80" relative="1" as="geometry">
            <mxPoint x="297.5" y="990" as="sourcePoint" />
            <mxPoint x="57.5" y="990" as="targetPoint" />
            <mxPoint as="offset" />
          </mxGeometry>
        </mxCell>
        <mxCell id="H5Ej5llLTe1Llc4CH-_9-38" value="data valid" style="html=1;verticalAlign=bottom;endArrow=open;dashed=1;endSize=8;curved=0;rounded=0;" edge="1" parent="1">
          <mxGeometry x="-0.191" relative="1" as="geometry">
            <mxPoint x="57.5" y="1029" as="sourcePoint" />
            <mxPoint x="297.5" y="1029" as="targetPoint" />
            <mxPoint as="offset" />
          </mxGeometry>
        </mxCell>
        <mxCell id="H5Ej5llLTe1Llc4CH-_9-39" value="" style="html=1;points=[[0,0,0,0,5],[0,1,0,0,-5],[1,0,0,0,5],[1,1,0,0,-5]];perimeter=orthogonalPerimeter;outlineConnect=0;targetShapes=umlLifeline;portConstraint=eastwest;newEdgeStyle={&quot;curved&quot;:0,&quot;rounded&quot;:0};" vertex="1" parent="1">
          <mxGeometry x="875" y="570" width="10" height="80" as="geometry" />
        </mxCell>
        <mxCell id="H5Ej5llLTe1Llc4CH-_9-40" value="Read temp" style="html=1;verticalAlign=bottom;endArrow=block;curved=0;rounded=0;" edge="1" parent="1" target="H5Ej5llLTe1Llc4CH-_9-39">
          <mxGeometry x="0.1685" width="80" relative="1" as="geometry">
            <mxPoint x="187.5" y="589.5" as="sourcePoint" />
            <mxPoint x="632.5" y="589.5" as="targetPoint" />
            <mxPoint as="offset" />
          </mxGeometry>
        </mxCell>
        <mxCell id="H5Ej5llLTe1Llc4CH-_9-41" value="return temp struct" style="html=1;verticalAlign=bottom;endArrow=open;dashed=1;endSize=8;curved=0;rounded=0;" edge="1" parent="1" source="H5Ej5llLTe1Llc4CH-_9-39">
          <mxGeometry x="-0.191" relative="1" as="geometry">
            <mxPoint x="632.5" y="630" as="sourcePoint" />
            <mxPoint x="187.5" y="630" as="targetPoint" />
            <mxPoint as="offset" />
          </mxGeometry>
        </mxCell>
        <mxCell id="H5Ej5llLTe1Llc4CH-_9-46" value="light ematch" style="html=1;verticalAlign=bottom;endArrow=block;curved=0;rounded=0;" edge="1" parent="1">
          <mxGeometry x="0.0222" width="80" relative="1" as="geometry">
            <mxPoint x="180" y="1190" as="sourcePoint" />
            <mxPoint x="755" y="1190" as="targetPoint" />
            <mxPoint x="1" as="offset" />
          </mxGeometry>
        </mxCell>
        <mxCell id="H5Ej5llLTe1Llc4CH-_9-47" value="" style="html=1;verticalAlign=bottom;endArrow=open;dashed=1;endSize=8;curved=0;rounded=0;" edge="1" parent="1">
          <mxGeometry relative="1" as="geometry">
            <mxPoint x="750" y="1210" as="sourcePoint" />
            <mxPoint x="185" y="1210" as="targetPoint" />
          </mxGeometry>
        </mxCell>
        <mxCell id="H5Ej5llLTe1Llc4CH-_9-49" value="ALT : light ematch" style="shape=umlFrame;whiteSpace=wrap;html=1;pointerEvents=0;width=190;height=30;" vertex="1" parent="1">
          <mxGeometry x="30" y="1100" width="780" height="180" as="geometry" />
        </mxCell>
        <mxCell id="H5Ej5llLTe1Llc4CH-_9-50" value="light ematch" style="html=1;verticalAlign=bottom;endArrow=block;curved=0;rounded=0;" edge="1" parent="1">
          <mxGeometry x="0.0222" width="80" relative="1" as="geometry">
            <mxPoint x="295" y="1170" as="sourcePoint" />
            <mxPoint x="185" y="1170" as="targetPoint" />
            <mxPoint x="1" as="offset" />
          </mxGeometry>
        </mxCell>
        <mxCell id="H5Ej5llLTe1Llc4CH-_9-51" value="light ematch ?" style="html=1;verticalAlign=bottom;endArrow=block;curved=0;rounded=0;" edge="1" parent="1">
          <mxGeometry x="0.0222" width="80" relative="1" as="geometry">
            <mxPoint x="190" y="1070" as="sourcePoint" />
            <mxPoint x="295" y="1070" as="targetPoint" />
            <mxPoint x="1" as="offset" />
          </mxGeometry>
        </mxCell>
        <mxCell id="H5Ej5llLTe1Llc4CH-_9-52" value="light ematch ?" style="html=1;verticalAlign=bottom;endArrow=block;curved=0;rounded=0;" edge="1" parent="1" target="H5Ej5llLTe1Llc4CH-_9-14">
          <mxGeometry x="0.0222" width="80" relative="1" as="geometry">
            <mxPoint x="290" y="1090" as="sourcePoint" />
            <mxPoint x="180" y="1090" as="targetPoint" />
            <mxPoint x="1" as="offset" />
          </mxGeometry>
        </mxCell>
        <mxCell id="H5Ej5llLTe1Llc4CH-_9-53" value="light ematch" style="html=1;verticalAlign=bottom;endArrow=block;curved=0;rounded=0;" edge="1" parent="1" target="H5Ej5llLTe1Llc4CH-_9-10">
          <mxGeometry x="0.0222" width="80" relative="1" as="geometry">
            <mxPoint x="47.5" y="1150" as="sourcePoint" />
            <mxPoint x="152.5" y="1150" as="targetPoint" />
            <mxPoint x="1" as="offset" />
          </mxGeometry>
        </mxCell>
        <mxCell id="H5Ej5llLTe1Llc4CH-_9-54" value="" style="html=1;verticalAlign=bottom;endArrow=open;dashed=1;endSize=8;curved=0;rounded=0;" edge="1" parent="1" target="H5Ej5llLTe1Llc4CH-_9-14">
          <mxGeometry x="-0.191" relative="1" as="geometry">
            <mxPoint x="172.5" y="1230" as="sourcePoint" />
            <mxPoint x="70" y="1230" as="targetPoint" />
            <mxPoint as="offset" />
          </mxGeometry>
        </mxCell>
        <mxCell id="H5Ej5llLTe1Llc4CH-_9-55" value="LOOP : landed" style="shape=umlFrame;whiteSpace=wrap;html=1;pointerEvents=0;width=120;height=30;" vertex="1" parent="1">
          <mxGeometry x="10" y="1340" width="460" height="230" as="geometry" />
        </mxCell>
        <mxCell id="H5Ej5llLTe1Llc4CH-_9-56" value="" style="html=1;points=[[0,0,0,0,5],[0,1,0,0,-5],[1,0,0,0,5],[1,1,0,0,-5]];perimeter=orthogonalPerimeter;outlineConnect=0;targetShapes=umlLifeline;portConstraint=eastwest;newEdgeStyle={&quot;curved&quot;:0,&quot;rounded&quot;:0};" vertex="1" parent="1">
          <mxGeometry x="45" y="1380" width="10" height="160" as="geometry" />
        </mxCell>
        <mxCell id="H5Ej5llLTe1Llc4CH-_9-58" value="" style="html=1;points=[[0,0,0,0,5],[0,1,0,0,-5],[1,0,0,0,5],[1,1,0,0,-5]];perimeter=orthogonalPerimeter;outlineConnect=0;targetShapes=umlLifeline;portConstraint=eastwest;newEdgeStyle={&quot;curved&quot;:0,&quot;rounded&quot;:0};" vertex="1" parent="1">
          <mxGeometry x="404" y="1380" width="10" height="50" as="geometry" />
        </mxCell>
        <mxCell id="H5Ej5llLTe1Llc4CH-_9-59" value="Read GPS" style="html=1;verticalAlign=bottom;endArrow=block;curved=0;rounded=0;" edge="1" parent="1" target="H5Ej5llLTe1Llc4CH-_9-58">
          <mxGeometry x="0.0222" width="80" relative="1" as="geometry">
            <mxPoint x="180" y="1390" as="sourcePoint" />
            <mxPoint x="427.5" y="1390" as="targetPoint" />
            <mxPoint x="1" as="offset" />
          </mxGeometry>
        </mxCell>
        <mxCell id="H5Ej5llLTe1Llc4CH-_9-60" value="return GPS struct" style="html=1;verticalAlign=bottom;endArrow=open;dashed=1;endSize=8;curved=0;rounded=0;" edge="1" parent="1" target="H5Ej5llLTe1Llc4CH-_9-57">
          <mxGeometry x="-0.191" relative="1" as="geometry">
            <mxPoint x="405" y="1419.5" as="sourcePoint" />
            <mxPoint x="302.5" y="1419.5" as="targetPoint" />
            <mxPoint as="offset" />
          </mxGeometry>
        </mxCell>
        <mxCell id="H5Ej5llLTe1Llc4CH-_9-61" value="" style="html=1;points=[[0,0,0,0,5],[0,1,0,0,-5],[1,0,0,0,5],[1,1,0,0,-5]];perimeter=orthogonalPerimeter;outlineConnect=0;targetShapes=umlLifeline;portConstraint=eastwest;newEdgeStyle={&quot;curved&quot;:0,&quot;rounded&quot;:0};" vertex="1" parent="1">
          <mxGeometry x="295" y="1440" width="10" height="110" as="geometry" />
        </mxCell>
        <mxCell id="H5Ej5llLTe1Llc4CH-_9-62" value="send GPS data" style="html=1;verticalAlign=bottom;endArrow=block;curved=0;rounded=0;" edge="1" parent="1">
          <mxGeometry x="0.0222" width="80" relative="1" as="geometry">
            <mxPoint x="187.5" y="1460" as="sourcePoint" />
            <mxPoint x="292.5" y="1460" as="targetPoint" />
            <mxPoint x="1" as="offset" />
          </mxGeometry>
        </mxCell>
        <mxCell id="H5Ej5llLTe1Llc4CH-_9-64" value="send GPS data" style="html=1;verticalAlign=bottom;endArrow=block;curved=0;rounded=0;" edge="1" parent="1">
          <mxGeometry x="0.0222" width="80" relative="1" as="geometry">
            <mxPoint x="295" y="1500" as="sourcePoint" />
            <mxPoint x="55" y="1500" as="targetPoint" />
            <mxPoint x="1" as="offset" />
          </mxGeometry>
        </mxCell>
        <mxCell id="H5Ej5llLTe1Llc4CH-_9-65" value="data valid" style="html=1;verticalAlign=bottom;endArrow=open;dashed=1;endSize=8;curved=0;rounded=0;" edge="1" parent="1">
          <mxGeometry x="-0.191" relative="1" as="geometry">
            <mxPoint x="55" y="1520" as="sourcePoint" />
            <mxPoint x="295" y="1520" as="targetPoint" />
            <mxPoint as="offset" />
          </mxGeometry>
        </mxCell>
        <mxCell id="H5Ej5llLTe1Llc4CH-_9-67" value="data valid" style="html=1;verticalAlign=bottom;endArrow=open;dashed=1;endSize=8;curved=0;rounded=0;" edge="1" parent="1">
          <mxGeometry x="-0.191" relative="1" as="geometry">
            <mxPoint x="291.25" y="1540" as="sourcePoint" />
            <mxPoint x="188.75" y="1540" as="targetPoint" />
            <mxPoint as="offset" />
          </mxGeometry>
        </mxCell>
        <mxCell id="H5Ej5llLTe1Llc4CH-_9-68" value="sd : Phoenix rocket&amp;nbsp; flight" style="shape=umlFrame;whiteSpace=wrap;html=1;pointerEvents=0;width=180;height=30;" vertex="1" parent="1">
          <mxGeometry x="-50" width="1040" height="1620" as="geometry" />
        </mxCell>
      </root>
    </mxGraphModel>
  </diagram>
  <diagram id="XvYX9e4_-2D69QiBuaR0" name="Page-2">
    <mxGraphModel dx="1502" dy="638" grid="1" gridSize="10" guides="1" tooltips="1" connect="1" arrows="1" fold="1" page="1" pageScale="1" pageWidth="827" pageHeight="1169" math="0" shadow="0">
      <root>
        <mxCell id="0" />
        <mxCell id="1" parent="0" />
      </root>
    </mxGraphModel>
  </diagram>
</mxfile>
